<mxfile host="app.diagrams.net" modified="2023-05-09T02:45:27.444Z" agent="Mozilla/5.0 (Macintosh; Intel Mac OS X 10_15_7) AppleWebKit/537.36 (KHTML, like Gecko) Chrome/112.0.0.0 Safari/537.36" etag="Cnqm2TIyrmOCi8TpWrnw" version="21.2.9" type="github">
  <diagram name="第 1 页" id="89QT7O3r1ESZ9PImca6_">
    <mxGraphModel dx="1050" dy="582" grid="1" gridSize="10" guides="1" tooltips="1" connect="1" arrows="1" fold="1" page="1" pageScale="1" pageWidth="827" pageHeight="1169" math="0" shadow="0">
      <root>
        <mxCell id="0" />
        <mxCell id="1" parent="0" />
        <mxCell id="Pp6I54uz-6fCwyag41DD-1" style="edgeStyle=orthogonalEdgeStyle;rounded=0;orthogonalLoop=1;jettySize=auto;html=1;exitX=0.5;exitY=1;exitDx=0;exitDy=0;entryX=0.5;entryY=0;entryDx=0;entryDy=0;" edge="1" parent="1" source="Pp6I54uz-6fCwyag41DD-10" target="Pp6I54uz-6fCwyag41DD-12">
          <mxGeometry relative="1" as="geometry" />
        </mxCell>
        <mxCell id="Pp6I54uz-6fCwyag41DD-2" style="edgeStyle=orthogonalEdgeStyle;orthogonalLoop=1;jettySize=auto;html=1;exitX=1;exitY=0.5;exitDx=0;exitDy=0;entryX=0;entryY=0.5;entryDx=0;entryDy=0;curved=1;" edge="1" parent="1" source="Pp6I54uz-6fCwyag41DD-10" target="Pp6I54uz-6fCwyag41DD-25">
          <mxGeometry relative="1" as="geometry" />
        </mxCell>
        <mxCell id="Pp6I54uz-6fCwyag41DD-3" style="edgeStyle=orthogonalEdgeStyle;orthogonalLoop=1;jettySize=auto;html=1;exitX=1;exitY=0.5;exitDx=0;exitDy=0;entryX=0;entryY=0.25;entryDx=0;entryDy=0;curved=1;" edge="1" parent="1" source="Pp6I54uz-6fCwyag41DD-10" target="Pp6I54uz-6fCwyag41DD-15">
          <mxGeometry relative="1" as="geometry" />
        </mxCell>
        <mxCell id="Pp6I54uz-6fCwyag41DD-4" style="edgeStyle=orthogonalEdgeStyle;orthogonalLoop=1;jettySize=auto;html=1;exitX=1;exitY=0.5;exitDx=0;exitDy=0;entryX=0;entryY=0.5;entryDx=0;entryDy=0;curved=1;" edge="1" parent="1" source="Pp6I54uz-6fCwyag41DD-10" target="Pp6I54uz-6fCwyag41DD-18">
          <mxGeometry relative="1" as="geometry" />
        </mxCell>
        <mxCell id="Pp6I54uz-6fCwyag41DD-5" style="edgeStyle=orthogonalEdgeStyle;orthogonalLoop=1;jettySize=auto;html=1;exitX=1;exitY=0.5;exitDx=0;exitDy=0;entryX=0;entryY=0.5;entryDx=0;entryDy=0;curved=1;" edge="1" parent="1" source="Pp6I54uz-6fCwyag41DD-10" target="Pp6I54uz-6fCwyag41DD-23">
          <mxGeometry relative="1" as="geometry" />
        </mxCell>
        <mxCell id="Pp6I54uz-6fCwyag41DD-6" style="edgeStyle=orthogonalEdgeStyle;orthogonalLoop=1;jettySize=auto;html=1;exitX=1;exitY=0.5;exitDx=0;exitDy=0;entryX=0;entryY=0.25;entryDx=0;entryDy=0;curved=1;" edge="1" parent="1" source="Pp6I54uz-6fCwyag41DD-10" target="Pp6I54uz-6fCwyag41DD-27">
          <mxGeometry relative="1" as="geometry" />
        </mxCell>
        <mxCell id="Pp6I54uz-6fCwyag41DD-7" style="edgeStyle=orthogonalEdgeStyle;orthogonalLoop=1;jettySize=auto;html=1;exitX=1;exitY=0.5;exitDx=0;exitDy=0;entryX=0;entryY=0.5;entryDx=0;entryDy=0;curved=1;" edge="1" parent="1" source="Pp6I54uz-6fCwyag41DD-10" target="Pp6I54uz-6fCwyag41DD-29">
          <mxGeometry relative="1" as="geometry" />
        </mxCell>
        <mxCell id="Pp6I54uz-6fCwyag41DD-8" style="edgeStyle=orthogonalEdgeStyle;orthogonalLoop=1;jettySize=auto;html=1;exitX=1;exitY=0.5;exitDx=0;exitDy=0;entryX=0;entryY=0.5;entryDx=0;entryDy=0;curved=1;" edge="1" parent="1" source="Pp6I54uz-6fCwyag41DD-10" target="Pp6I54uz-6fCwyag41DD-31">
          <mxGeometry relative="1" as="geometry" />
        </mxCell>
        <mxCell id="Pp6I54uz-6fCwyag41DD-9" style="edgeStyle=orthogonalEdgeStyle;orthogonalLoop=1;jettySize=auto;html=1;exitX=1;exitY=0.5;exitDx=0;exitDy=0;entryX=0;entryY=0.5;entryDx=0;entryDy=0;curved=1;" edge="1" parent="1" source="Pp6I54uz-6fCwyag41DD-10" target="Pp6I54uz-6fCwyag41DD-37">
          <mxGeometry relative="1" as="geometry" />
        </mxCell>
        <mxCell id="Pp6I54uz-6fCwyag41DD-10" value="&lt;font style=&quot;font-size: 12px;&quot;&gt;查找数据&lt;br&gt;95%&lt;/font&gt;" style="rounded=1;whiteSpace=wrap;html=1;shadow=0;glass=0;fillColor=#ffcc99;strokeColor=#36393d;direction=east;flipH=0;flipV=1;" vertex="1" parent="1">
          <mxGeometry x="240" y="240" width="80" height="60" as="geometry" />
        </mxCell>
        <mxCell id="Pp6I54uz-6fCwyag41DD-11" style="edgeStyle=orthogonalEdgeStyle;rounded=0;orthogonalLoop=1;jettySize=auto;html=1;exitX=0.5;exitY=1;exitDx=0;exitDy=0;" edge="1" parent="1" source="Pp6I54uz-6fCwyag41DD-12" target="Pp6I54uz-6fCwyag41DD-13">
          <mxGeometry relative="1" as="geometry" />
        </mxCell>
        <mxCell id="Pp6I54uz-6fCwyag41DD-12" value="&lt;font style=&quot;font-size: 12px;&quot;&gt;处理数据&lt;br&gt;1%&lt;/font&gt;" style="rounded=1;whiteSpace=wrap;html=1;shadow=0;glass=0;fillColor=#ffcc99;strokeColor=#36393d;direction=east;flipH=0;flipV=1;" vertex="1" parent="1">
          <mxGeometry x="240" y="350" width="80" height="60" as="geometry" />
        </mxCell>
        <mxCell id="Pp6I54uz-6fCwyag41DD-13" value="&lt;font style=&quot;font-size: 12px;&quot;&gt;导出数据&lt;br&gt;4%&lt;/font&gt;" style="rounded=1;whiteSpace=wrap;html=1;shadow=0;glass=0;fillColor=#ffcc99;strokeColor=#36393d;direction=east;flipH=0;flipV=1;" vertex="1" parent="1">
          <mxGeometry x="240" y="470" width="80" height="60" as="geometry" />
        </mxCell>
        <mxCell id="Pp6I54uz-6fCwyag41DD-14" style="edgeStyle=orthogonalEdgeStyle;rounded=0;orthogonalLoop=1;jettySize=auto;html=1;exitX=0.5;exitY=1;exitDx=0;exitDy=0;entryX=0.5;entryY=0;entryDx=0;entryDy=0;" edge="1" parent="1" source="Pp6I54uz-6fCwyag41DD-15" target="Pp6I54uz-6fCwyag41DD-18">
          <mxGeometry relative="1" as="geometry" />
        </mxCell>
        <mxCell id="Pp6I54uz-6fCwyag41DD-15" value="取订单号分组&lt;br&gt;7%" style="rounded=1;whiteSpace=wrap;html=1;shadow=0;glass=0;fillColor=#dae8fc;strokeColor=#6c8ebf;direction=east;flipH=0;flipV=1;" vertex="1" parent="1">
          <mxGeometry x="460" y="30" width="80" height="60" as="geometry" />
        </mxCell>
        <mxCell id="Pp6I54uz-6fCwyag41DD-16" style="edgeStyle=orthogonalEdgeStyle;rounded=0;orthogonalLoop=1;jettySize=auto;html=1;exitX=0.5;exitY=1;exitDx=0;exitDy=0;entryX=0.5;entryY=0;entryDx=0;entryDy=0;" edge="1" parent="1" source="Pp6I54uz-6fCwyag41DD-18" target="Pp6I54uz-6fCwyag41DD-23">
          <mxGeometry relative="1" as="geometry" />
        </mxCell>
        <mxCell id="Pp6I54uz-6fCwyag41DD-17" value="" style="edgeStyle=orthogonalEdgeStyle;rounded=0;orthogonalLoop=1;jettySize=auto;html=1;" edge="1" parent="1" source="Pp6I54uz-6fCwyag41DD-18" target="Pp6I54uz-6fCwyag41DD-23">
          <mxGeometry relative="1" as="geometry" />
        </mxCell>
        <mxCell id="Pp6I54uz-6fCwyag41DD-18" value="查还款计划&lt;br&gt;10%" style="rounded=1;whiteSpace=wrap;html=1;shadow=0;glass=0;fillColor=#dae8fc;strokeColor=#6c8ebf;direction=east;flipH=0;flipV=1;" vertex="1" parent="1">
          <mxGeometry x="460" y="110" width="80" height="60" as="geometry" />
        </mxCell>
        <mxCell id="Pp6I54uz-6fCwyag41DD-19" style="edgeStyle=orthogonalEdgeStyle;rounded=0;orthogonalLoop=1;jettySize=auto;html=1;exitX=0.5;exitY=1;exitDx=0;exitDy=0;entryX=0.5;entryY=0;entryDx=0;entryDy=0;dashed=1;" edge="1" parent="1" source="Pp6I54uz-6fCwyag41DD-23" target="Pp6I54uz-6fCwyag41DD-25">
          <mxGeometry relative="1" as="geometry" />
        </mxCell>
        <mxCell id="Pp6I54uz-6fCwyag41DD-20" style="edgeStyle=orthogonalEdgeStyle;orthogonalLoop=1;jettySize=auto;html=1;exitX=1;exitY=0.5;exitDx=0;exitDy=0;entryX=0;entryY=0.5;entryDx=0;entryDy=0;curved=1;" edge="1" parent="1" source="Pp6I54uz-6fCwyag41DD-23" target="Pp6I54uz-6fCwyag41DD-33">
          <mxGeometry relative="1" as="geometry" />
        </mxCell>
        <mxCell id="Pp6I54uz-6fCwyag41DD-21" style="edgeStyle=orthogonalEdgeStyle;rounded=0;orthogonalLoop=1;jettySize=auto;html=1;exitX=1;exitY=0.5;exitDx=0;exitDy=0;entryX=0;entryY=0.5;entryDx=0;entryDy=0;" edge="1" parent="1" source="Pp6I54uz-6fCwyag41DD-23" target="Pp6I54uz-6fCwyag41DD-35">
          <mxGeometry relative="1" as="geometry" />
        </mxCell>
        <mxCell id="Pp6I54uz-6fCwyag41DD-22" style="edgeStyle=orthogonalEdgeStyle;orthogonalLoop=1;jettySize=auto;html=1;exitX=1;exitY=0.5;exitDx=0;exitDy=0;entryX=0;entryY=0.5;entryDx=0;entryDy=0;curved=1;" edge="1" parent="1" source="Pp6I54uz-6fCwyag41DD-23" target="Pp6I54uz-6fCwyag41DD-36">
          <mxGeometry relative="1" as="geometry" />
        </mxCell>
        <mxCell id="Pp6I54uz-6fCwyag41DD-23" value="还款计划详情&lt;br&gt;70%" style="rounded=1;whiteSpace=wrap;html=1;shadow=0;glass=0;fillColor=#dae8fc;strokeColor=#6c8ebf;direction=east;flipH=0;flipV=1;" vertex="1" parent="1">
          <mxGeometry x="460" y="200" width="80" height="60" as="geometry" />
        </mxCell>
        <mxCell id="Pp6I54uz-6fCwyag41DD-24" style="edgeStyle=orthogonalEdgeStyle;rounded=0;orthogonalLoop=1;jettySize=auto;html=1;exitX=0.5;exitY=1;exitDx=0;exitDy=0;entryX=0.5;entryY=0;entryDx=0;entryDy=0;dashed=1;" edge="1" parent="1" source="Pp6I54uz-6fCwyag41DD-25" target="Pp6I54uz-6fCwyag41DD-27">
          <mxGeometry relative="1" as="geometry" />
        </mxCell>
        <mxCell id="Pp6I54uz-6fCwyag41DD-25" value="放款日期&lt;br&gt;3%" style="rounded=1;whiteSpace=wrap;html=1;shadow=0;glass=0;fillColor=#dae8fc;strokeColor=#6c8ebf;direction=east;flipH=0;flipV=1;" vertex="1" parent="1">
          <mxGeometry x="460" y="290" width="80" height="60" as="geometry" />
        </mxCell>
        <mxCell id="Pp6I54uz-6fCwyag41DD-26" style="edgeStyle=orthogonalEdgeStyle;rounded=0;orthogonalLoop=1;jettySize=auto;html=1;exitX=0.5;exitY=1;exitDx=0;exitDy=0;entryX=0.5;entryY=0;entryDx=0;entryDy=0;dashed=1;" edge="1" parent="1" source="Pp6I54uz-6fCwyag41DD-27" target="Pp6I54uz-6fCwyag41DD-29">
          <mxGeometry relative="1" as="geometry" />
        </mxCell>
        <mxCell id="Pp6I54uz-6fCwyag41DD-27" value="年利率&lt;br&gt;3%" style="rounded=1;whiteSpace=wrap;html=1;shadow=0;glass=0;fillColor=#dae8fc;strokeColor=#6c8ebf;direction=east;flipH=0;flipV=1;" vertex="1" parent="1">
          <mxGeometry x="460" y="380" width="80" height="60" as="geometry" />
        </mxCell>
        <mxCell id="Pp6I54uz-6fCwyag41DD-28" style="edgeStyle=orthogonalEdgeStyle;rounded=0;orthogonalLoop=1;jettySize=auto;html=1;exitX=0.5;exitY=1;exitDx=0;exitDy=0;entryX=0.5;entryY=0;entryDx=0;entryDy=0;dashed=1;" edge="1" parent="1" source="Pp6I54uz-6fCwyag41DD-29" target="Pp6I54uz-6fCwyag41DD-31">
          <mxGeometry relative="1" as="geometry" />
        </mxCell>
        <mxCell id="Pp6I54uz-6fCwyag41DD-29" value="减免金额&lt;br&gt;3%" style="rounded=1;whiteSpace=wrap;html=1;shadow=0;glass=0;fillColor=#dae8fc;strokeColor=#6c8ebf;direction=east;flipH=0;flipV=1;" vertex="1" parent="1">
          <mxGeometry x="460" y="460" width="80" height="60" as="geometry" />
        </mxCell>
        <mxCell id="Pp6I54uz-6fCwyag41DD-30" style="edgeStyle=orthogonalEdgeStyle;rounded=0;orthogonalLoop=1;jettySize=auto;html=1;exitX=0.5;exitY=1;exitDx=0;exitDy=0;entryX=0.5;entryY=0;entryDx=0;entryDy=0;" edge="1" parent="1" source="Pp6I54uz-6fCwyag41DD-31" target="Pp6I54uz-6fCwyag41DD-37">
          <mxGeometry relative="1" as="geometry" />
        </mxCell>
        <mxCell id="Pp6I54uz-6fCwyag41DD-31" value="催收回款金额&lt;br&gt;3%" style="rounded=1;whiteSpace=wrap;html=1;shadow=0;glass=0;fillColor=#dae8fc;strokeColor=#6c8ebf;direction=east;flipH=0;flipV=1;" vertex="1" parent="1">
          <mxGeometry x="460" y="540" width="80" height="60" as="geometry" />
        </mxCell>
        <mxCell id="Pp6I54uz-6fCwyag41DD-32" style="edgeStyle=orthogonalEdgeStyle;rounded=0;orthogonalLoop=1;jettySize=auto;html=1;exitX=0.5;exitY=1;exitDx=0;exitDy=0;entryX=0.5;entryY=0;entryDx=0;entryDy=0;dashed=1;" edge="1" parent="1" source="Pp6I54uz-6fCwyag41DD-33" target="Pp6I54uz-6fCwyag41DD-35">
          <mxGeometry relative="1" as="geometry" />
        </mxCell>
        <mxCell id="Pp6I54uz-6fCwyag41DD-33" value="RepayDetail&lt;br&gt;30%" style="rounded=1;whiteSpace=wrap;html=1;shadow=0;glass=0;fillColor=#d5e8d4;strokeColor=#82b366;direction=east;flipH=0;flipV=1;" vertex="1" parent="1">
          <mxGeometry x="635" y="90" width="90" height="60" as="geometry" />
        </mxCell>
        <mxCell id="Pp6I54uz-6fCwyag41DD-34" style="edgeStyle=orthogonalEdgeStyle;rounded=0;orthogonalLoop=1;jettySize=auto;html=1;exitX=0.5;exitY=1;exitDx=0;exitDy=0;entryX=0.5;entryY=0;entryDx=0;entryDy=0;" edge="1" parent="1" source="Pp6I54uz-6fCwyag41DD-35" target="Pp6I54uz-6fCwyag41DD-36">
          <mxGeometry relative="1" as="geometry" />
        </mxCell>
        <mxCell id="Pp6I54uz-6fCwyag41DD-35" value="repayDetailCost&lt;br&gt;50%" style="rounded=1;whiteSpace=wrap;html=1;shadow=0;glass=0;fillColor=#d5e8d4;strokeColor=#82b366;direction=east;flipH=0;flipV=1;" vertex="1" parent="1">
          <mxGeometry x="630" y="200" width="100" height="60" as="geometry" />
        </mxCell>
        <mxCell id="Pp6I54uz-6fCwyag41DD-36" value="&lt;font style=&quot;font-size: 12px;&quot;&gt;处理数据&lt;br&gt;20%&lt;br&gt;&lt;/font&gt;" style="rounded=1;whiteSpace=wrap;html=1;shadow=0;glass=0;fillColor=#d5e8d4;strokeColor=#82b366;direction=east;flipH=0;flipV=1;" vertex="1" parent="1">
          <mxGeometry x="635" y="310" width="90" height="60" as="geometry" />
        </mxCell>
        <mxCell id="Pp6I54uz-6fCwyag41DD-37" value="处理数据&lt;br&gt;1%" style="rounded=1;whiteSpace=wrap;html=1;shadow=0;glass=0;fillColor=#dae8fc;strokeColor=#6c8ebf;direction=east;flipH=0;flipV=1;" vertex="1" parent="1">
          <mxGeometry x="460" y="620" width="80" height="60" as="geometry" />
        </mxCell>
        <mxCell id="Pp6I54uz-6fCwyag41DD-39" style="edgeStyle=orthogonalEdgeStyle;hachureGap=4;orthogonalLoop=1;jettySize=auto;html=1;exitX=1;exitY=0.5;exitDx=0;exitDy=0;entryX=0;entryY=0.5;entryDx=0;entryDy=0;fontFamily=Architects Daughter;fontSource=https%3A%2F%2Ffonts.googleapis.com%2Fcss%3Ffamily%3DArchitects%2BDaughter;fontSize=16;curved=1;" edge="1" parent="1" source="Pp6I54uz-6fCwyag41DD-38" target="Pp6I54uz-6fCwyag41DD-10">
          <mxGeometry relative="1" as="geometry" />
        </mxCell>
        <mxCell id="Pp6I54uz-6fCwyag41DD-40" style="edgeStyle=orthogonalEdgeStyle;rounded=0;hachureGap=4;orthogonalLoop=1;jettySize=auto;html=1;exitX=1;exitY=0.5;exitDx=0;exitDy=0;fontFamily=Architects Daughter;fontSource=https%3A%2F%2Ffonts.googleapis.com%2Fcss%3Ffamily%3DArchitects%2BDaughter;fontSize=16;" edge="1" parent="1" source="Pp6I54uz-6fCwyag41DD-38" target="Pp6I54uz-6fCwyag41DD-12">
          <mxGeometry relative="1" as="geometry" />
        </mxCell>
        <mxCell id="Pp6I54uz-6fCwyag41DD-41" style="edgeStyle=orthogonalEdgeStyle;hachureGap=4;orthogonalLoop=1;jettySize=auto;html=1;exitX=1;exitY=0.5;exitDx=0;exitDy=0;entryX=0;entryY=0.5;entryDx=0;entryDy=0;fontFamily=Architects Daughter;fontSource=https%3A%2F%2Ffonts.googleapis.com%2Fcss%3Ffamily%3DArchitects%2BDaughter;fontSize=16;curved=1;" edge="1" parent="1" source="Pp6I54uz-6fCwyag41DD-38" target="Pp6I54uz-6fCwyag41DD-13">
          <mxGeometry relative="1" as="geometry" />
        </mxCell>
        <mxCell id="Pp6I54uz-6fCwyag41DD-38" value="导出&lt;br&gt;100%" style="rounded=1;whiteSpace=wrap;html=1;shadow=0;glass=0;fillColor=#e51400;strokeColor=#B20000;direction=east;flipH=0;flipV=1;fontColor=#ffffff;" vertex="1" parent="1">
          <mxGeometry x="60" y="350" width="80" height="60" as="geometry" />
        </mxCell>
      </root>
    </mxGraphModel>
  </diagram>
</mxfile>
